<?xml version="1.0" encoding="utf-8"?>
<svg id="master-artboard" viewBox="0 0 174.74227905273438 119.07215881347656" version="1.1" xmlns="http://www.w3.org/2000/svg" x="0px" y="0px" style="enable-background:new 0 0 1400 980;" width="174.74227905273438px" height="119.07215881347656px"><rect id="ee-background" x="0" y="0" width="174.74227905273438" height="119.07215881347656" style="fill: white; fill-opacity: 0; pointer-events: none;"/><g transform="matrix(-0.2424643486738205, 0.24246443808078766, -0.24246427416801453, -0.24246422946453094, 185.0095672607422, 67.25897598266602)"><path d="M0 80V229.5c0 17 6.7 33.3 18.7 45.3l176 176c25 25 65.5 25 90.5 0L418.7 317.3c25-25 25-65.5 0-90.5l-176-176c-12-12-28.3-18.7-45.3-18.7H48C21.5 32 0 53.5 0 80zm112 96c-17.7 0-32-14.3-32-32s14.3-32 32-32s32 14.3 32 32s-14.3 32-32 32z"/></g></svg>